<svg width="146" height="48" viewBox="0 0 146 48" fill="none" xmlns="http://www.w3.org/2000/svg">
<path d="M121.244 36.75C120.653 36.75 120.152 36.5434 119.739 36.1302C119.325 35.717 119.119 35.2153 119.119 34.625V14.4375H117.667V12.3125H124.325V11.25H133.675V12.3125H140.333V14.4375H138.881V34.625C138.881 35.1917 138.669 35.6875 138.244 36.1125C137.819 36.5375 137.323 36.75 136.756 36.75H121.244ZM136.756 14.4375H121.244V34.625H136.756V14.4375ZM124.998 31.5792H127.123V17.4479H124.998V31.5792ZM130.877 31.5792H133.002V17.4479H130.877V31.5792ZM121.244 14.4375V34.625V14.4375Z" fill="black"/>
<path d="M68.75 35.25H70.4L87.0125 18.6375L85.3625 16.9875L68.75 33.6V35.25ZM91.775 17.025L86.975 12.225L88.55 10.65C88.975 10.225 89.5 10.0125 90.125 10.0125C90.75 10.0125 91.275 10.225 91.7 10.65L93.35 12.3C93.775 12.725 93.9875 13.25 93.9875 13.875C93.9875 14.5 93.775 15.025 93.35 15.45L91.775 17.025ZM90.2 18.6L71.3 37.5H66.5V32.6999L85.4 13.8L90.2 18.6ZM86.1875 17.8125L85.3625 16.9875L87.0125 18.6375L86.1875 17.8125Z" fill="black"/>
<path d="M24 31.5C26.3667 31.5 28.375 30.675 30.025 29.025C31.675 27.375 32.5 25.3667 32.5 23C32.5 20.6333 31.675 18.625 30.025 16.975C28.375 15.325 26.3667 14.5 24 14.5C21.6333 14.5 19.625 15.325 17.975 16.975C16.325 18.625 15.5 20.6333 15.5 23C15.5 25.3667 16.325 27.375 17.975 29.025C19.625 30.675 21.6333 31.5 24 31.5ZM24 28.6C22.4333 28.6 21.1083 28.0583 20.025 26.975C18.9417 25.8917 18.4 24.5667 18.4 23C18.4 21.4333 18.9417 20.1083 20.025 19.025C21.1083 17.9417 22.4333 17.4 24 17.4C25.5667 17.4 26.8917 17.9417 27.975 19.025C29.0583 20.1083 29.6 21.4333 29.6 23C29.6 24.5667 29.0583 25.8917 27.975 26.975C26.8917 28.0583 25.5667 28.6 24 28.6ZM24 38C19.1333 38 14.7333 36.6167 10.8 33.85C6.86667 31.0833 3.93333 27.4667 2 23C3.93333 18.5333 6.86667 14.9167 10.8 12.15C14.7333 9.38333 19.1333 8 24 8C28.8667 8 33.2667 9.38333 37.2 12.15C41.1333 14.9167 44.0667 18.5333 46 23C44.0667 27.4667 41.1333 31.0833 37.2 33.85C33.2667 36.6167 28.8667 38 24 38ZM24 35C28.0333 35 31.7417 33.9083 35.125 31.725C38.5083 29.5417 41.0833 26.6333 42.85 23C41.0833 19.3667 38.5083 16.4583 35.125 14.275C31.7417 12.0917 28.0333 11 24 11C19.9667 11 16.2583 12.0917 12.875 14.275C9.49167 16.4583 6.9 19.3667 5.1 23C6.9 26.6333 9.49167 29.5417 12.875 31.725C16.2583 33.9083 19.9667 35 24 35Z" fill="#4200FF"/>
</svg>
